HIERARCHY
ROOT Hips
{
  OFFSET 34.7684 99.0961 -7.34144
  CHANNELS 6 Xposition Yposition Zposition Zrotation Xrotation Yrotation
  JOINT spine
  {
    OFFSET 0 8.81705 0.507024
    CHANNELS 3 Zrotation Xrotation Yrotation
    JOINT spine1
    {
      OFFSET 0 10.7766 0
      CHANNELS 3 Zrotation Xrotation Yrotation
      JOINT spine2
      {
        OFFSET 0 10.3259 0
        CHANNELS 3 Zrotation Xrotation Yrotation
        JOINT Neck
        {
          OFFSET 0 26.511 1.26395
          CHANNELS 3 Zrotation Xrotation Yrotation
          JOINT Head
          {
            OFFSET 0 8.00966 0
            CHANNELS 3 Zrotation Xrotation Yrotation
            End Site
            {
              OFFSET 0 19.3879 -6.39386
            }
          }
        }
        JOINT RightShoulder
        {
          OFFSET -4.34795 11.1512 -0.605422
          CHANNELS 3 Zrotation Xrotation Yrotation
          JOINT RightArm
          {
            OFFSET 0 14.6258 0
            CHANNELS 3 Zrotation Xrotation Yrotation
            JOINT RightArmRoll
            {
              OFFSET 0 7.3834 0
              CHANNELS 3 Zrotation Xrotation Yrotation
              JOINT RightForeArm
              {
                OFFSET 0 21.5052 0
                CHANNELS 3 Zrotation Xrotation Yrotation
                JOINT RightForeArmRoll
                {
                  OFFSET 0 8.28532 0
                  CHANNELS 3 Zrotation Xrotation Yrotation
                  JOINT RightHand
                  {
                    OFFSET 0 16.6268 0
                    CHANNELS 3 Zrotation Xrotation Yrotation
                    End Site
                    {
                      OFFSET 0 0 0
                    }
                  }
                }
              }
            }
          }
        }
        JOINT LeftShoulder
        {
          OFFSET 4.34795 11.1512 -0.605422
          CHANNELS 3 Zrotation Xrotation Yrotation
          JOINT LeftArm
          {
            OFFSET 0 14.6258 0
            CHANNELS 3 Zrotation Xrotation Yrotation
            JOINT LeftArmRoll
            {
              OFFSET 0 7.3834 0
              CHANNELS 3 Zrotation Xrotation Yrotation
              JOINT LeftForeArm
              {
                OFFSET 0 21.5052 0
                CHANNELS 3 Zrotation Xrotation Yrotation
                JOINT LeftForeArmRoll
                {
                  OFFSET 0 8.28532 0
                  CHANNELS 3 Zrotation Xrotation Yrotation
                  JOINT LeftHand
                  {
                    OFFSET 0 16.6268 0
                    CHANNELS 3 Zrotation Xrotation Yrotation
                    End Site
                    {
                      OFFSET 0 0 0
                    }
                  }
                }
              }
            }
          }
        }
      }
    }
  }
  JOINT RightUpLeg
  {
    OFFSET -7.8151 -1.43309 -1.20217
    CHANNELS 3 Zrotation Xrotation Yrotation
    JOINT RightUpLegRoll
    {
      OFFSET 0 19.4959 0
      CHANNELS 3 Zrotation Xrotation Yrotation
      JOINT RightLeg
      {
        OFFSET 0 -24.1427 0
        CHANNELS 3 Zrotation Xrotation Yrotation
        JOINT RightLegRoll
        {
          OFFSET 0 24.2217 0
          CHANNELS 3 Zrotation Xrotation Yrotation
          JOINT RightFoot
          {
            OFFSET 0 20.1605 0
            CHANNELS 3 Zrotation Xrotation Yrotation
            JOINT RightToeBase
            {
              OFFSET 0 16.8532 0
              CHANNELS 3 Zrotation Xrotation Yrotation
              End Site
              {
                OFFSET 0.00714343 8.16187 -0.94078
              }
            }
          }
        }
      }
    }
  }
  JOINT LeftUpLeg
  {
    OFFSET 7.8151 -1.43309 -1.20217
    CHANNELS 3 Zrotation Xrotation Yrotation
    JOINT LeftUpLegRoll
    {
      OFFSET 0 19.496 0
      CHANNELS 3 Zrotation Xrotation Yrotation
      JOINT LeftLeg
      {
        OFFSET 0 24.1426 0
        CHANNELS 3 Zrotation Xrotation Yrotation
        JOINT LeftLegRoll
        {
          OFFSET 0 24.4456 0
          CHANNELS 3 Zrotation Xrotation Yrotation
          JOINT LeftFoot
          {
            OFFSET 0 19.9366 0
            CHANNELS 3 Zrotation Xrotation Yrotation
            JOINT LeftToeBase
            {
              OFFSET 0 16.8532 0
              CHANNELS 3 Zrotation Xrotation Yrotation
              End Site
              {
                OFFSET -0.0320138 8.16186 -0.940781
              }
            }
          }
        }
      }
    }
  }
}
MOTION
Frames: 4
Frame Time: 0.00208333
48.3129 100.235 9.72119 0.854793 -0.0578792 2.45823 0.125998 -2.27921 -0.00437004 0.251629 -0.55566 -0.0412459 0.252065 1.08942 -0.0454962 -6.38183 18.5327 3.3897 -1.6527 -0.341606 1.37988 65.2413 -3.16404 -2.52267 109.059 17.2699 10.9734 -3.51708e-006 7.00638e-007 -3.04664e-007 14.3669 0.188722 -0.191988 3.48565e-006 -1.89985e-008 -3.00592 8.02891 -4.95145 0.697688 -65.5558 -4.49077 3.25908 -107.814 14.8548 -5.53695 -1.83608e-005 1.50432e-006 5.40462e-007 -11.6571 3.58115 0.819923 6.56333e-006 -2.52915e-006 3.0028 -8.02889 -4.95146 -0.69769 177.934 3.20169 -0.147439 180 7.01561e-015 178.986 177.901 9.00439 179.733 -7.54547e-008 2.19107e-006 0.158451 -19.4179 69.0624 20.4404 8.13225 25.2404 -3.47549 -178.55 0.828307 2.80975 4.54188e-006 -4.6773e-006 -1.03413 -2.83613 -5.85089 0.091138 -4.46378e-006 -1.1319e-006 -0.0796591 18.8804 68.2796 -19.7463 -8.12809 25.233 3.48436 
48.3143 100.233 9.73743 0.855183 -0.0623237 2.45578 0.125912 -2.27694 -0.00544859 0.251938 -0.551118 -0.0412099 0.252382 1.09396 -0.045463 -6.37674 18.5335 3.38803 -1.65729 -0.330673 1.37929 65.2388 -3.16536 -2.52332 109.052 17.251 10.8985 -3.51708e-006 7.00638e-007 -3.04664e-007 14.4249 0.261645 -0.196379 3.48565e-006 -1.89985e-008 -3.00592 8.02891 -4.95145 0.697688 -65.5409 -4.48982 3.25774 -107.823 14.8088 -5.49366 -1.83608e-005 1.50432e-006 5.40462e-007 -11.6898 3.69298 0.832079 6.56333e-006 -2.52915e-006 3.0028 -8.02889 -4.95146 -0.69769 177.931 3.19432 -0.144489 180 7.01561e-015 178.986 177.899 8.99787 179.733 -7.54547e-008 2.19107e-006 0.158203 -19.416 69.0588 20.4381 8.13225 25.2404 -3.47549 -178.551 0.824036 2.80982 4.54188e-006 -4.6773e-006 -1.03413 -2.8359 -5.8517 0.0914044 -4.46378e-006 -1.1319e-006 -0.0796301 18.8792 68.2782 -19.745 -8.12807 25.2326 3.48489 
48.328 100.242 9.73133 0.855715 -0.0669724 2.45332 0.125786 -2.27467 -0.00654295 0.252203 -0.546576 -0.041103 0.252654 1.0985 -0.0453583 -6.37115 18.5348 3.38619 -1.66287 -0.320569 1.37854 65.2364 -3.16677 -2.52402 109.045 17.2328 10.8263 -3.51708e-006 7.00638e-007 -3.04664e-007 14.4813 0.330396 -0.199956 3.48565e-006 -1.89985e-008 -3.00592 8.02891 -4.95145 0.697688 -65.5266 -4.48884 3.25643 -107.831 14.7649 -5.45141 -1.83608e-005 1.50432e-006 5.40462e-007 -11.7215 3.80327 0.844017 6.56333e-006 -2.52915e-006 3.0028 -8.02889 -4.95146 -0.69769 177.929 3.18615 -0.141434 180 7.01561e-015 178.986 177.897 8.99063 179.734 -7.54547e-008 2.19107e-006 0.157922 -19.4138 69.055 20.4357 8.13225 25.2404 -3.47549 -178.552 0.819081 2.81006 4.54188e-006 -4.6773e-006 -1.03413 -2.83558 -5.85179 0.0916721 -4.46378e-006 -1.1319e-006 -0.079587 18.8778 68.2766 -19.7435 -8.12803 25.232 3.48569 
48.3258 100.24 9.72143 0.856348 -0.0717641 2.45085 0.125631 -2.2724 -0.00764836 0.252437 -0.542034 -0.0409466 0.252896 1.10304 -0.0452034 -6.3652 18.5363 3.38424 -1.66914 -0.311046 1.37767 65.2341 -3.16823 -2.52477 109.038 17.2152 10.756 -3.51708e-006 7.00638e-007 -3.04664e-007 14.5366 0.396227 -0.202963 3.48565e-006 -1.89985e-008 -3.00592 8.02891 -4.95145 0.697688 -65.5128 -4.48784 3.25514 -107.84 14.7223 -5.40988 -1.83608e-005 1.50432e-006 5.40462e-007 -11.7525 3.91248 0.855804 6.56333e-006 -2.52915e-006 3.0028 -8.02889 -4.95146 -0.69769 177.926 3.17744 -0.138306 180 7.01561e-015 178.986 177.895 8.98286 179.734 -7.54547e-008 2.19107e-006 0.15762 -19.4114 69.0512 20.4332 8.13225 25.2404 -3.47549 -178.553 0.813647 2.81041 4.54188e-006 -4.6773e-006 -1.03413 -2.83521 -5.85138 0.0919409 -4.46378e-006 -1.1319e-006 -0.079534 18.8763 68.2748 -19.7419 -8.12798 25.2313 3.48667 
